<?xml version="1.0" encoding="UTF-8"?>
<svg xmlns="http://www.w3.org/2000/svg" xmlns:xlink="http://www.w3.org/1999/xlink" width="13pt" height="13pt" viewBox="0 0 13 13" version="1.1">
<g id="surface1">
<path style=" stroke:none;fill-rule:nonzero;fill:rgb(1.176471%,0.392157%,1.568627%);fill-opacity:1;" d="M 8.609375 6.113281 C 9.597656 5.664062 9.746094 2.261719 9.164062 1.257812 C 8.402344 -0.0507812 4.785156 0.210938 3.644531 1.144531 C 3.515625 1.609375 3.527344 2.453125 3.535156 3.125 L 7.117188 3.125 L 7.117188 3.441406 L 3.535156 3.441406 C 3.535156 3.445312 1.9375 3.449219 1.9375 3.449219 C -0.8125 3.449219 -0.753906 9.421875 2.875 9.421875 C 2.875 9.421875 3.007812 8.101562 3.242188 7.4375 C 3.960938 5.390625 6.988281 6.847656 8.609375 6.113281 Z M 4.859375 2.640625 C 4.445312 2.640625 4.109375 2.304688 4.109375 1.890625 C 4.109375 1.480469 4.445312 1.144531 4.859375 1.144531 C 5.273438 1.144531 5.609375 1.480469 5.609375 1.890625 C 5.609375 2.304688 5.273438 2.640625 4.859375 2.640625 Z M 4.859375 2.640625 "/>
<path style=" stroke:none;fill-rule:nonzero;fill:rgb(1.176471%,0.392157%,1.568627%);fill-opacity:1;" d="M 10 3.574219 C 10 3.574219 9.90625 4.898438 9.671875 5.5625 C 8.953125 7.609375 5.925781 6.148438 4.300781 6.886719 C 3.316406 7.332031 3.167969 10.738281 3.75 11.742188 C 4.511719 13.050781 8.125 12.789062 9.269531 11.851562 C 9.398438 11.390625 9.386719 10.546875 9.378906 9.875 L 5.796875 9.875 L 5.796875 9.558594 L 9.378906 9.558594 C 9.378906 9.554688 11.144531 9.550781 11.144531 9.550781 C 13.679688 9.550781 13.90625 3.574219 10 3.574219 Z M 7.925781 10.230469 C 8.339844 10.230469 8.671875 10.5625 8.671875 10.976562 C 8.671875 11.390625 8.339844 11.726562 7.925781 11.726562 C 7.511719 11.726562 7.175781 11.390625 7.175781 10.976562 C 7.175781 10.5625 7.511719 10.230469 7.925781 10.230469 Z M 7.925781 10.230469 "/>
</g>
</svg>
