<?xml version="1.0" encoding="UTF-8"?>
<svg xmlns="http://www.w3.org/2000/svg" xmlns:xlink="http://www.w3.org/1999/xlink" width="4pt" height="4pt" viewBox="0 0 4 4" version="1.1">
<g id="surface1">
<path style=" stroke:none;fill-rule:nonzero;fill:rgb(1.176471%,0.392157%,1.568627%);fill-opacity:1;" d="M 2.648438 1.882812 C 2.953125 1.742188 3 0.695312 2.820312 0.386719 C 2.585938 -0.015625 1.472656 0.0664062 1.121094 0.351562 C 1.082031 0.496094 1.085938 0.753906 1.085938 0.960938 L 2.191406 0.960938 L 2.191406 1.058594 L 1.085938 1.058594 C 1.085938 1.058594 0.597656 1.0625 0.597656 1.0625 C -0.25 1.0625 -0.230469 2.898438 0.882812 2.898438 C 0.882812 2.898438 0.925781 2.492188 0.996094 2.289062 C 1.21875 1.660156 2.148438 2.105469 2.648438 1.882812 Z M 1.496094 0.8125 C 1.367188 0.8125 1.265625 0.710938 1.265625 0.582031 C 1.265625 0.457031 1.367188 0.351562 1.496094 0.351562 C 1.621094 0.351562 1.726562 0.457031 1.726562 0.582031 C 1.726562 0.710938 1.621094 0.8125 1.496094 0.8125 Z M 1.496094 0.8125 "/>
<path style=" stroke:none;fill-rule:nonzero;fill:rgb(1.176471%,0.392157%,1.568627%);fill-opacity:1;" d="M 3.078125 1.101562 C 3.078125 1.101562 3.046875 1.507812 2.976562 1.710938 C 2.753906 2.339844 1.824219 1.890625 1.324219 2.117188 C 1.019531 2.257812 0.972656 3.304688 1.152344 3.613281 C 1.386719 4.015625 2.5 3.933594 2.851562 3.648438 C 2.890625 3.503906 2.886719 3.246094 2.886719 3.039062 L 1.78125 3.039062 L 1.78125 2.941406 L 2.886719 2.941406 C 2.886719 2.941406 3.429688 2.9375 3.429688 2.9375 C 4.207031 2.9375 4.277344 1.101562 3.078125 1.101562 Z M 2.4375 3.148438 C 2.566406 3.148438 2.667969 3.25 2.667969 3.378906 C 2.667969 3.503906 2.566406 3.609375 2.4375 3.609375 C 2.3125 3.609375 2.207031 3.503906 2.207031 3.378906 C 2.207031 3.25 2.3125 3.148438 2.4375 3.148438 Z M 2.4375 3.148438 "/>
</g>
</svg>
