<?xml version="1.0" encoding="UTF-8"?>
<svg xmlns="http://www.w3.org/2000/svg" xmlns:xlink="http://www.w3.org/1999/xlink" width="70pt" height="70pt" viewBox="0 0 70 70" version="1.1">
<g id="surface1">
<path style=" stroke:none;fill-rule:nonzero;fill:rgb(1.176471%,0.392157%,1.568627%);fill-opacity:1;" d="M 46.367188 32.914062 C 51.683594 30.507812 52.476562 12.167969 49.339844 6.769531 C 45.242188 -0.28125 25.773438 1.132812 19.625 6.171875 C 18.921875 8.675781 18.992188 13.21875 19.027344 16.832031 L 38.324219 16.832031 L 38.324219 18.523438 L 19.03125 18.523438 C 19.03125 18.546875 10.441406 18.574219 10.441406 18.574219 C -4.371094 18.574219 -4.0625 50.742188 15.480469 50.742188 C 15.480469 50.742188 16.199219 43.617188 17.453125 40.046875 C 21.332031 29.027344 37.625 36.878906 46.367188 32.914062 Z M 26.164062 14.222656 C 23.9375 14.222656 22.136719 12.417969 22.136719 10.191406 C 22.136719 7.964844 23.9375 6.160156 26.164062 6.160156 C 28.390625 6.160156 30.195312 7.964844 30.195312 10.191406 C 30.199219 12.414062 28.390625 14.222656 26.164062 14.222656 Z M 26.164062 14.222656 "/>
<path style=" stroke:none;fill-rule:nonzero;fill:rgb(1.176471%,0.392157%,1.568627%);fill-opacity:1;" d="M 53.847656 19.253906 C 53.847656 19.253906 53.332031 26.382812 52.078125 29.949219 C 48.199219 40.964844 31.910156 33.117188 23.164062 37.082031 C 17.851562 39.488281 17.050781 57.828125 20.191406 63.226562 C 24.285156 70.28125 43.753906 68.867188 49.90625 63.824219 C 50.613281 61.324219 50.539062 56.78125 50.503906 53.167969 L 31.203125 53.167969 L 31.203125 51.476562 L 50.496094 51.476562 C 50.496094 51.453125 60.007812 51.425781 60.007812 51.425781 C 73.65625 51.425781 74.878906 19.253906 53.847656 19.253906 Z M 42.675781 55.078125 C 44.898438 55.078125 46.703125 56.878906 46.703125 59.109375 C 46.703125 61.332031 44.898438 63.132812 42.675781 63.132812 C 40.449219 63.132812 38.648438 61.332031 38.648438 59.109375 C 38.648438 56.878906 40.449219 55.078125 42.675781 55.078125 Z M 42.675781 55.078125 "/>
</g>
</svg>
